<?xml version="1.0" ?><svg height="100px" id="Слой_1" style="enable-background:new 0 0 100 100;" version="1.1" viewBox="0 0 100 100" width="100px" xml:space="preserve" xmlns="http://www.w3.org/2000/svg" xmlns:xlink="http://www.w3.org/1999/xlink"><style type="text/css">
	.st0{fill-rule:evenodd;clip-rule:evenodd;fill:#2F3030;}
	.st1{fill-rule:evenodd;clip-rule:evenodd;fill:#131313;}
	.st2{fill-rule:evenodd;clip-rule:evenodd;fill:#828384;}
	.st3{fill-rule:evenodd;clip-rule:evenodd;fill:#343535;}
	.st4{fill-rule:evenodd;clip-rule:evenodd;fill:#4C4C4C;}
	.st5{fill-rule:evenodd;clip-rule:evenodd;fill:#FF6600;}
	.st6{fill-rule:evenodd;clip-rule:evenodd;fill:#1C75BC;}
	.st7{fill-rule:evenodd;clip-rule:evenodd;fill:url(#SVGID_1_);}
	.st8{fill-rule:evenodd;clip-rule:evenodd;fill:#BEBEBE;}
	.st9{fill-rule:evenodd;clip-rule:evenodd;fill:#F7931A;}
	.st10{fill-rule:evenodd;clip-rule:evenodd;fill:#F08B16;}
	.st11{fill-rule:evenodd;clip-rule:evenodd;}
	.st12{fill-rule:evenodd;clip-rule:evenodd;fill:#83C41E;}
	.st13{fill-rule:evenodd;clip-rule:evenodd;fill:#669073;}
	.st14{fill-rule:evenodd;clip-rule:evenodd;fill:#010001;}
	.st15{fill-rule:evenodd;clip-rule:evenodd;fill:url(#SVGID_2_);}
	.st16{fill-rule:evenodd;clip-rule:evenodd;fill:#3FA8DA;}
	.st17{fill:#20B9C1;}
	.st18{fill-rule:evenodd;clip-rule:evenodd;fill:#534489;}
	.st19{fill-rule:evenodd;clip-rule:evenodd;fill:#1A53F0;}
	.st20{fill:#FFFFFF;}
	.st21{fill-rule:evenodd;clip-rule:evenodd;fill:#246ED3;}
	.st22{fill-rule:evenodd;clip-rule:evenodd;fill:#F7A800;}
	.st23{fill-rule:evenodd;clip-rule:evenodd;fill:#67B2E8;}
	.st24{fill-rule:evenodd;clip-rule:evenodd;fill:#00C4B3;}
	.st25{fill-rule:evenodd;clip-rule:evenodd;fill:#5F2652;}
	.st26{fill-rule:evenodd;clip-rule:evenodd;fill:#5B8383;}
	.st27{fill-rule:evenodd;clip-rule:evenodd;fill:#326464;}
	.st28{fill-rule:evenodd;clip-rule:evenodd;fill:#FBBB33;}
	.st29{fill-rule:evenodd;clip-rule:evenodd;fill:#FAAA00;}
	.st30{fill-rule:evenodd;clip-rule:evenodd;fill:#165098;}
	.st31{fill-rule:evenodd;clip-rule:evenodd;fill:#5C9DD5;}
	.st32{fill-rule:evenodd;clip-rule:evenodd;fill:#C10202;}
	.st33{fill-rule:evenodd;clip-rule:evenodd;fill:#B50202;}
	.st34{fill-rule:evenodd;clip-rule:evenodd;fill:#C80101;}
	.st35{fill-rule:evenodd;clip-rule:evenodd;fill:#E2E1E1;}
	.st36{fill-rule:evenodd;clip-rule:evenodd;fill:#3DB6D3;}
	.st37{fill-rule:evenodd;clip-rule:evenodd;fill:#1162A1;}
	.st38{fill-rule:evenodd;clip-rule:evenodd;fill:#3A86C7;}
	.st39{fill-rule:evenodd;clip-rule:evenodd;fill:#07426D;}
</style><g id="BITCOIN_CASH"><path class="st10" d="M29.15418,4.58803C54.31088-6.98641,83.95562,4.1156,95.41197,29.15417   c11.57445,25.1567,0.47243,54.80144-24.56617,66.25783c-25.1567,11.57439-54.80144,0.47243-66.25779-24.5662   C-6.9864,45.68909,4.11561,16.04436,29.15418,4.58803L29.15418,4.58803z M50.05905,18.99703l-4.84238,0.94487l1.6535,8.97608   c-1.77159,0.35431-3.54317,0.70862-5.31479,1.18106l-1.65349-9.21233l-4.96048,0.94487l1.77162,9.33039   c-3.77942,0.82675-7.67693,1.41731-11.45635,2.12593l0.94487,5.31479l3.77939-0.70862   c1.88971-0.35431,3.42511,0.23625,4.25185,2.12593l0,0c1.77159,9.44852,2.95264,15.82631,4.72426,25.62914   c0,1.53537-0.59053,2.48024-2.12593,2.71642l-3.77942,0.70862l0.11813,6.25966c3.77939-0.70862,7.55881-1.41724,11.33823-2.12592   l1.77158,9.44858l4.96048-0.94487l-1.77158-9.33045c1.77158-0.23619,3.5432-0.5905,5.31479-0.94481l1.77158,9.33039   l4.96048-0.94487l-1.77159-9.44852c5.78722-1.41724,12.8736-3.54317,14.52709-10.03902   c0.47243-1.53543,0.47243-3.18892,0.35434-4.72429c-0.70865-7.20447-4.25185-9.56664-11.10201-9.92096   c3.89751-2.95267,5.19666-5.78722,3.77939-10.62957c-2.0078-7.32259-9.33043-7.32259-15.47196-6.7321L50.05905,18.99703z    M57.97217,39.31137c1.29918,6.73203-8.38556,7.91315-12.8736,8.7399l-2.24402-12.16501   C47.46069,35.05952,56.79111,32.46115,57.97217,39.31137L57.97217,39.31137z M48.52365,66.23962l-2.59833-13.22787   c5.07857-0.94487,16.65302-4.13373,18.07029,3.42505C65.29479,63.87751,53.48413,65.29482,48.52365,66.23962L48.52365,66.23962z"/></g></svg>