<?xml version="1.0" ?><svg height="100px" id="Слой_1" style="enable-background:new 0 0 100 100;" version="1.1" viewBox="0 0 100 100" width="100px" xml:space="preserve" xmlns="http://www.w3.org/2000/svg" xmlns:xlink="http://www.w3.org/1999/xlink"><style type="text/css">
	.st0{fill-rule:evenodd;clip-rule:evenodd;fill:#2F3030;}
	.st1{fill-rule:evenodd;clip-rule:evenodd;fill:#131313;}
	.st2{fill-rule:evenodd;clip-rule:evenodd;fill:#828384;}
	.st3{fill-rule:evenodd;clip-rule:evenodd;fill:#343535;}
	.st4{fill-rule:evenodd;clip-rule:evenodd;fill:#4C4C4C;}
	.st5{fill-rule:evenodd;clip-rule:evenodd;fill:#FF6600;}
	.st6{fill-rule:evenodd;clip-rule:evenodd;fill:#1C75BC;}
	.st7{fill-rule:evenodd;clip-rule:evenodd;fill:url(#SVGID_1_);}
	.st8{fill-rule:evenodd;clip-rule:evenodd;fill:#BEBEBE;}
	.st9{fill-rule:evenodd;clip-rule:evenodd;fill:#F7931A;}
	.st10{fill-rule:evenodd;clip-rule:evenodd;fill:#F08B16;}
	.st11{fill-rule:evenodd;clip-rule:evenodd;}
	.st12{fill-rule:evenodd;clip-rule:evenodd;fill:#83C41E;}
	.st13{fill-rule:evenodd;clip-rule:evenodd;fill:#669073;}
	.st14{fill-rule:evenodd;clip-rule:evenodd;fill:#010001;}
	.st15{fill-rule:evenodd;clip-rule:evenodd;fill:url(#SVGID_2_);}
	.st16{fill-rule:evenodd;clip-rule:evenodd;fill:#3FA8DA;}
	.st17{fill:#20B9C1;}
	.st18{fill-rule:evenodd;clip-rule:evenodd;fill:#534489;}
	.st19{fill-rule:evenodd;clip-rule:evenodd;fill:#1A53F0;}
	.st20{fill:#FFFFFF;}
	.st21{fill-rule:evenodd;clip-rule:evenodd;fill:#246ED3;}
	.st22{fill-rule:evenodd;clip-rule:evenodd;fill:#F7A800;}
	.st23{fill-rule:evenodd;clip-rule:evenodd;fill:#67B2E8;}
	.st24{fill-rule:evenodd;clip-rule:evenodd;fill:#00C4B3;}
	.st25{fill-rule:evenodd;clip-rule:evenodd;fill:#5F2652;}
	.st26{fill-rule:evenodd;clip-rule:evenodd;fill:#5B8383;}
	.st27{fill-rule:evenodd;clip-rule:evenodd;fill:#326464;}
	.st28{fill-rule:evenodd;clip-rule:evenodd;fill:#FBBB33;}
	.st29{fill-rule:evenodd;clip-rule:evenodd;fill:#FAAA00;}
	.st30{fill-rule:evenodd;clip-rule:evenodd;fill:#165098;}
	.st31{fill-rule:evenodd;clip-rule:evenodd;fill:#5C9DD5;}
	.st32{fill-rule:evenodd;clip-rule:evenodd;fill:#C10202;}
	.st33{fill-rule:evenodd;clip-rule:evenodd;fill:#B50202;}
	.st34{fill-rule:evenodd;clip-rule:evenodd;fill:#C80101;}
	.st35{fill-rule:evenodd;clip-rule:evenodd;fill:#E2E1E1;}
	.st36{fill-rule:evenodd;clip-rule:evenodd;fill:#3DB6D3;}
	.st37{fill-rule:evenodd;clip-rule:evenodd;fill:#1162A1;}
	.st38{fill-rule:evenodd;clip-rule:evenodd;fill:#3A86C7;}
	.st39{fill-rule:evenodd;clip-rule:evenodd;fill:#07426D;}
</style><g id="BITCOIN"><path class="st9" d="M49.94097-0.00002C77.56789-0.00002,100,22.43212,100,49.94096   c0,27.62692-22.43211,50.05906-50.05903,50.05906C22.43211,100.00002,0,77.56788,0,49.94096   C0,22.43212,22.43211-0.00002,49.94097-0.00002L49.94097-0.00002z M63.04604,21.84177l-4.84061-1.18063l-2.24321,8.97283   c-1.77096-0.47226-3.54191-0.82645-5.31287-1.29871l2.24321-8.97283l-4.84061-1.29871l-2.24321,9.20899   c-3.77804-0.82645-7.55608-1.77098-11.33412-2.71544l-1.2987,5.19478l3.65998,0.82645   c1.88902,0.47227,3.06965,1.77098,2.95159,3.77805l0,0c-2.36127,9.32701-3.8961,15.5844-6.37544,25.2656   c-0.59032,1.41679-1.53483,2.00714-3.06966,1.65289l-3.65998-0.94447l-2.47934,5.66705   c3.77804,0.94453,7.43802,1.88899,11.21606,2.83352l-2.36128,9.32702l4.84061,1.18069l2.36127-9.20899   c1.65289,0.47227,3.42385,0.94453,5.19481,1.41673l-2.36127,9.09091l4.95868,1.18069l2.24321-9.20899   c5.90319,1.18063,13.22314,2.12516,17.47343-3.06969c1.06258-1.29871,1.77096-2.71544,2.24321-4.13223   c2.47934-6.96576,0.11806-10.50764-5.90319-13.69535c4.72256-1.06261,7.2019-3.06969,7.91028-8.14645   c1.06257-7.43802-5.43094-10.50764-11.33412-12.51472L63.04604,21.84177z M61.74734,43.68357   c-1.65289,6.49349-10.97993,3.65997-15.46635,2.47934l3.06966-12.04251C53.95514,35.30102,63.40023,36.8359,61.74734,43.68357   L61.74734,43.68357z M41.79457,64.10857l3.30579-13.10506c4.95868,1.29871,16.76505,3.18777,14.87603,10.7438   C58.08736,69.06725,46.75325,65.40728,41.79457,64.10857L41.79457,64.10857z"/></g></svg>