<?xml version="1.0" ?><svg height="100px" id="Слой_1" style="enable-background:new 0 0 100 100;" version="1.1" viewBox="0 0 100 100" width="100px" xml:space="preserve" xmlns="http://www.w3.org/2000/svg" xmlns:xlink="http://www.w3.org/1999/xlink"><style type="text/css">
	.st0{fill-rule:evenodd;clip-rule:evenodd;fill:#2F3030;}
	.st1{fill-rule:evenodd;clip-rule:evenodd;fill:#131313;}
	.st2{fill-rule:evenodd;clip-rule:evenodd;fill:#828384;}
	.st3{fill-rule:evenodd;clip-rule:evenodd;fill:#343535;}
	.st4{fill-rule:evenodd;clip-rule:evenodd;fill:#4C4C4C;}
	.st5{fill-rule:evenodd;clip-rule:evenodd;fill:#FF6600;}
	.st6{fill-rule:evenodd;clip-rule:evenodd;fill:#1C75BC;}
	.st7{fill-rule:evenodd;clip-rule:evenodd;fill:url(#SVGID_1_);}
	.st8{fill-rule:evenodd;clip-rule:evenodd;fill:#BEBEBE;}
	.st9{fill-rule:evenodd;clip-rule:evenodd;fill:#F7931A;}
	.st10{fill-rule:evenodd;clip-rule:evenodd;fill:#F08B16;}
	.st11{fill-rule:evenodd;clip-rule:evenodd;}
	.st12{fill-rule:evenodd;clip-rule:evenodd;fill:#83C41E;}
	.st13{fill-rule:evenodd;clip-rule:evenodd;fill:#669073;}
	.st14{fill-rule:evenodd;clip-rule:evenodd;fill:#010001;}
	.st15{fill-rule:evenodd;clip-rule:evenodd;fill:url(#SVGID_2_);}
	.st16{fill-rule:evenodd;clip-rule:evenodd;fill:#3FA8DA;}
	.st17{fill:#20B9C1;}
	.st18{fill-rule:evenodd;clip-rule:evenodd;fill:#534489;}
	.st19{fill-rule:evenodd;clip-rule:evenodd;fill:#1A53F0;}
	.st20{fill:#FFFFFF;}
	.st21{fill-rule:evenodd;clip-rule:evenodd;fill:#246ED3;}
	.st22{fill-rule:evenodd;clip-rule:evenodd;fill:#F7A800;}
	.st23{fill-rule:evenodd;clip-rule:evenodd;fill:#67B2E8;}
	.st24{fill-rule:evenodd;clip-rule:evenodd;fill:#00C4B3;}
	.st25{fill-rule:evenodd;clip-rule:evenodd;fill:#5F2652;}
	.st26{fill-rule:evenodd;clip-rule:evenodd;fill:#5B8383;}
	.st27{fill-rule:evenodd;clip-rule:evenodd;fill:#326464;}
	.st28{fill-rule:evenodd;clip-rule:evenodd;fill:#FBBB33;}
	.st29{fill-rule:evenodd;clip-rule:evenodd;fill:#FAAA00;}
	.st30{fill-rule:evenodd;clip-rule:evenodd;fill:#165098;}
	.st31{fill-rule:evenodd;clip-rule:evenodd;fill:#5C9DD5;}
	.st32{fill-rule:evenodd;clip-rule:evenodd;fill:#C10202;}
	.st33{fill-rule:evenodd;clip-rule:evenodd;fill:#B50202;}
	.st34{fill-rule:evenodd;clip-rule:evenodd;fill:#C80101;}
	.st35{fill-rule:evenodd;clip-rule:evenodd;fill:#E2E1E1;}
	.st36{fill-rule:evenodd;clip-rule:evenodd;fill:#3DB6D3;}
	.st37{fill-rule:evenodd;clip-rule:evenodd;fill:#1162A1;}
	.st38{fill-rule:evenodd;clip-rule:evenodd;fill:#3A86C7;}
	.st39{fill-rule:evenodd;clip-rule:evenodd;fill:#07426D;}
</style><g id="ZCASH"><path class="st14" d="M49.94097,100C77.56788,100,100,77.56789,100,49.94098C100,22.43211,77.56788,0,49.94097,0   C22.43212,0,0,22.43211,0,49.94098C0,77.56789,22.43212,100,49.94097,100L49.94097,100z"/><linearGradient gradientUnits="userSpaceOnUse" id="SVGID_1_" x1="80.48504" x2="25.04221" y1="18.29336" y2="75.88931"><stop offset="0" style="stop-color:#FBCE5B"/><stop offset="1" style="stop-color:#D38B27"/></linearGradient><path class="st7" d="M49.94097,88.42975c21.25148,0,38.48878-17.35538,38.48878-38.48877   c0-21.13343-17.2373-38.37072-38.48878-38.37072c-21.13341,0-38.37072,17.2373-38.37072,38.37072   C11.57025,71.07437,28.80756,88.42975,49.94097,88.42975L49.94097,88.42975z"/><polygon class="st11" points="48.40614,62.21959 68.59504,62.21959 68.59504,73.90789 55.3719,73.90789 55.3719,82.7627    44.51004,82.7627 44.51004,73.90789 31.2869,73.90789 31.2869,65.52538 33.76624,62.21959 51.59386,38.25264 33.05785,38.25264    33.05785,26.56434 44.51004,26.56434 44.51004,17.82764 55.3719,17.82764 55.3719,26.56434 68.59504,26.56434 68.59504,35.18299    48.99646,61.51123  "/></g></svg>